# xmcd
#
# Track frame offsets:
#  150
#  25099
#  41212
#  57717
#  73695
#  83478
#  92142
#  105873
#  120050
#  128475
#  140719
#  153360
#
# Disc length: 2288 seconds
#
# Revision: 0
# Processed by: cddbd v1.5.1PL2 Copyright (c) Steve Scherf et al.
# Submitted via: Collectorz.com_Music_Collector 6.11
#
DISCID=9408ee0c
DTITLE=Mordaehoth/Veinen/Myself - 3-way split
DYEAR=2006
DGENRE=Black Metal - Noise
TTITLE0=Mordaehoth - 1.Descending Down The Metafysical Stairs Of Yggdrasill
TTITLE1=Mordaehoth - 2.Mesmerizing Darkness
TTITLE2=Mordaehoth - 3.Gates Of Helheim
TTITLE3=Mordaehoth - 4.Outro
TTITLE4=Myself - 1. Its A Long Way To Nowhere
TTITLE5=Myself - 2. Like Games In My Head
TTITLE6=Myself - 3. Among Those Humans
TTITLE7=Myself - 4.Hear What I Hear
TTITLE8=Veinen - 1.Intro
TTITLE9=Veinen - 2.Hordes
TTITLE10=Veinen - 3.Judas
TTITLE11=Veinen - 4.Razorhell
EXTD=
EXTT0=
EXTT1=
EXTT2=
EXTT3=
EXTT4=
EXTT5=
EXTT6=
EXTT7=
EXTT8=
EXTT9=
EXTT10=
EXTT11=
PLAYORDER=
